<?xml version="1.0" standalone="no"?>
<!DOCTYPE svg PUBLIC "-//W3C//DTD SVG 20010904//EN"
 "http://www.w3.org/TR/2001/REC-SVG-20010904/DTD/svg10.dtd">
<svg version="1.0" xmlns="http://www.w3.org/2000/svg"
 width="300.000000pt" height="83.000000pt" viewBox="0 0 300.000000 83.000000"
 preserveAspectRatio="xMidYMid meet">
<metadata>
Created by potrace 1.10, written by Peter Selinger 2001-2011
</metadata>
<g transform="translate(0.000000,83.000000) scale(0.100000,-0.100000)"
fill="#000000" stroke="none">
<path d="M1917 720 c-16 -22 -81 -104 -144 -181 -63 -77 -114 -141 -112 -143
17 -14 259 -131 259 -124 0 34 31 448 35 466 8 33 -7 26 -38 -18z m-1 -162
c-10 -167 -18 -248 -25 -248 -3 1 -22 9 -41 20 -58 31 -105 53 -114 54 -5 1
-14 8 -19 18 -11 17 11 49 90 133 15 17 29 34 30 38 2 9 76 97 82 97 2 0 1
-51 -3 -112z"/>
<path d="M1979 745 c0 -11 -8 -125 -17 -252 -17 -232 -17 -233 3 -227 100 31
301 97 304 100 3 3 -255 360 -280 389 -6 5 -9 1 -10 -10z m73 -120 c87 -112
175 -246 166 -250 -7 -2 -56 -17 -108 -34 -52 -16 -103 -33 -114 -37 -18 -7
-18 -2 -11 127 4 74 8 143 10 154 1 11 3 40 4 64 l1 44 22 -29 c13 -16 26 -33
30 -39z"/>
<path d="M202 687 l-31 -32 1 -145 1 -145 31 -32 c28 -31 34 -33 96 -33 62 0
68 2 98 33 25 26 32 42 32 73 0 39 0 39 -40 40 -39 1 -40 1 -40 -32 l0 -34
-50 0 -50 0 0 130 0 130 50 0 c50 0 50 0 50 -32 0 -32 2 -33 40 -33 l40 0 0
40 c-1 30 -8 48 -30 73 -28 30 -34 32 -98 32 -64 0 -70 -2 -100 -33z m182 -22
c18 -27 21 -55 6 -55 -5 0 -10 5 -10 12 0 26 -34 48 -72 48 -76 0 -78 -4 -78
-154 0 -153 6 -165 76 -162 47 2 74 19 74 47 0 11 5 19 10 19 6 0 10 -12 10
-26 0 -41 -36 -63 -101 -64 -46 0 -59 4 -78 23 -20 22 -21 33 -20 158 1 121 3
136 22 157 17 18 31 22 83 22 55 0 64 -3 78 -25z"/>
<path d="M512 687 l-32 -33 0 -145 0 -145 33 -32 c30 -29 38 -32 98 -32 60 0
67 2 97 33 l32 33 0 145 0 145 -33 32 c-30 29 -38 32 -98 32 -60 0 -67 -2 -97
-33z m173 -13 c25 -16 25 -18 25 -160 0 -134 -1 -144 -22 -164 -32 -30 -126
-29 -155 3 -19 20 -22 35 -22 156 -1 125 0 136 21 158 17 18 32 23 75 23 33 0
63 -6 78 -16z"/>
<path d="M557 658 c-13 -11 -17 -38 -21 -139 -5 -121 -4 -127 17 -146 29 -26
93 -30 118 -7 17 15 19 32 19 144 0 110 -2 129 -18 143 -22 20 -91 23 -115 5z
m103 -148 l0 -130 -50 0 -50 0 0 130 0 130 50 0 50 0 0 -130z"/>
<path d="M790 510 l0 -210 98 0 c98 0 98 0 130 33 l32 33 0 145 0 145 -33 32
c-32 32 -34 32 -130 32 l-97 0 0 -210z m211 158 c16 -20 18 -40 18 -160 0
-136 -1 -138 -26 -158 -20 -16 -41 -20 -99 -20 l-74 0 1 180 0 180 80 0 c72 0
83 -3 100 -22z"/>
<path d="M862 654 c-22 -15 -23 -21 -21 -142 2 -113 4 -129 22 -144 25 -23
106 -17 121 9 5 10 11 69 12 133 3 141 -5 160 -69 160 -23 0 -53 -7 -65 -16z
m108 -144 l0 -130 -50 0 -50 0 0 130 0 130 50 0 50 0 0 -130z"/>
<path d="M1100 510 l0 -210 105 0 105 0 0 40 0 40 -65 0 -65 0 0 45 0 45 50 0
50 0 0 40 0 40 -50 0 -50 0 0 45 0 45 65 0 65 0 0 40 0 40 -105 0 -105 0 0
-210z m180 170 c0 -5 -21 -10 -47 -10 -61 0 -83 -20 -83 -76 0 -52 19 -74 66
-74 19 0 34 -4 34 -10 0 -5 -15 -10 -34 -10 -47 0 -66 -22 -66 -74 0 -54 15
-68 80 -74 76 -7 59 -22 -25 -22 l-74 0 -6 33 c-3 17 -3 64 -2 102 2 39 5 105
5 148 l2 77 75 0 c43 0 75 -4 75 -10z"/>
<path d="M1350 510 l0 -210 40 0 40 0 0 93 0 92 51 -92 50 -93 45 0 c40 0 44
2 35 18 -5 9 -32 57 -60 105 l-51 89 41 71 c23 40 50 87 61 105 l20 32 -46 0
-45 0 -48 -87 -48 -88 -3 88 -3 87 -39 0 -40 0 0 -210z m52 162 c3 -10 4 -40
4 -68 -1 -34 4 -55 14 -67 16 -16 18 -16 37 6 11 12 35 50 54 85 18 34 39 62
47 62 10 0 6 -13 -14 -47 -15 -27 -31 -51 -36 -54 -6 -3 -10 -10 -10 -15 0 -5
-4 -19 -9 -32 -14 -36 -12 -42 36 -126 25 -44 45 -81 45 -82 0 -2 -7 -1 -15 2
-8 3 -26 27 -41 52 -15 26 -38 62 -51 80 -24 32 -26 33 -39 14 -7 -10 -14 -41
-15 -68 -2 -60 -7 -84 -20 -84 -5 0 -9 75 -9 180 0 99 4 180 9 180 5 0 11 -8
13 -18z"/>
<path d="M2320 510 l0 -210 40 0 40 0 0 80 0 80 51 0 51 0 -4 -80 -3 -80 40 0
40 0 -2 96 c-1 52 -7 102 -13 109 -7 8 -7 14 -1 17 5 1 11 34 12 71 2 62 0 70
-26 97 -28 29 -31 30 -127 30 l-98 0 0 -210z m209 154 c16 -20 20 -38 17 -73
-1 -25 -6 -54 -10 -64 -5 -9 -4 -23 1 -30 13 -16 11 -157 -2 -157 -5 0 -12 29
-15 65 -6 75 -15 85 -76 85 -57 0 -75 -22 -75 -94 -1 -31 -5 -59 -10 -62 -5
-3 -9 71 -9 175 l0 181 79 0 c74 0 81 -2 100 -26z"/>
<path d="M2386 651 c-23 -26 -24 -96 -1 -121 13 -15 31 -20 66 -20 56 0 69 15
69 80 0 65 -13 80 -69 80 -34 0 -53 -5 -65 -19z m114 -61 l0 -50 -50 0 -50 0
0 50 0 50 50 0 50 0 0 -50z"/>
<path d="M2657 692 c-27 -28 -27 -28 -27 -183 l0 -156 30 -26 c26 -23 39 -27
94 -27 59 0 67 3 95 31 l31 31 0 148 c0 147 0 148 -27 179 -26 29 -32 31 -98
31 -65 0 -74 -2 -98 -28z m174 -21 c23 -19 24 -24 24 -159 0 -173 -5 -182
-100 -182 -95 0 -102 12 -103 177 -1 118 1 134 19 157 18 23 28 26 79 26 42 0
64 -5 81 -19z"/>
<path d="M2697 652 c-26 -28 -25 -262 1 -283 25 -21 77 -23 109 -4 l28 16 -3
127 c-4 148 -11 162 -77 162 -28 0 -47 -6 -58 -18z m108 -142 l0 -130 -50 0
-50 0 0 130 0 130 50 0 50 0 0 -130z"/>
<path d="M1110 125 l0 -55 45 0 c33 0 45 4 45 15 0 9 9 15 25 15 16 0 25 -6
25 -15 0 -8 5 -15 11 -15 6 0 9 6 6 14 -3 8 -11 33 -18 55 -7 23 -17 40 -23
38 -6 -2 -17 -24 -25 -49 -12 -40 -17 -45 -42 -44 -34 1 -43 36 -9 36 11 0 20
5 20 10 0 6 -9 10 -20 10 -11 0 -20 6 -20 14 0 9 7 12 19 9 10 -3 22 0 25 6 5
7 -5 11 -28 11 l-36 0 0 -55z m130 3 c0 -5 -6 -8 -14 -8 -9 0 -12 7 -9 21 4
16 8 17 14 7 5 -7 9 -16 9 -20z"/>
<path d="M1283 163 c-4 -11 3 -23 20 -37 29 -23 36 -46 14 -46 -7 0 -19 6 -26
13 -11 10 -13 9 -9 -3 3 -9 17 -15 34 -15 40 0 47 39 9 57 -30 14 -28 34 5 30
14 -2 20 0 16 7 -11 17 -56 13 -63 -6z"/>
<path d="M1360 167 c0 -7 6 -22 14 -33 8 -10 12 -29 9 -41 -3 -14 -1 -23 6
-23 6 0 11 10 11 23 1 12 7 33 15 47 17 29 18 40 6 40 -5 0 -12 -12 -16 -27
l-7 -28 -14 28 c-16 29 -24 34 -24 14z"/>
<path d="M1447 173 c-13 -13 -7 -21 12 -16 30 8 33 -13 6 -45 -14 -16 -25 -33
-25 -36 0 -3 16 -6 36 -6 19 0 33 4 30 9 -3 5 -16 7 -28 3 l-22 -5 22 28 c12
15 22 36 22 45 0 23 -37 39 -53 23z"/>
<path d="M1522 128 c3 -52 4 -53 37 -56 22 -2 31 0 26 8 -4 6 -15 8 -26 5 -17
-6 -19 -1 -19 44 0 29 -5 51 -11 51 -6 0 -9 -21 -7 -52z"/>
<path d="M1600 125 l0 -55 36 0 c22 0 33 4 29 10 -4 6 -15 8 -26 5 -15 -5 -19
-1 -19 14 0 14 6 21 20 21 11 0 20 5 20 10 0 6 -9 10 -20 10 -11 0 -20 6 -20
14 0 9 7 12 19 9 10 -3 22 0 25 6 5 7 -5 11 -28 11 l-36 0 0 -55z"/>
<path d="M1701 158 c-5 -13 -11 -39 -15 -58 -5 -28 -5 -31 4 -17 13 21 50 23
50 2 0 -8 5 -15 11 -15 6 0 9 6 6 14 -3 8 -11 32 -18 55 -14 46 -25 52 -38 19z
m29 -35 c0 -7 -6 -10 -14 -7 -8 3 -12 13 -9 25 5 16 8 18 14 7 5 -7 9 -18 9
-25z"/>
<path d="M1773 125 c2 -53 17 -80 17 -30 0 14 5 25 10 25 6 0 16 -11 22 -25 6
-14 15 -25 20 -25 5 0 4 9 -2 20 -8 14 -8 26 0 41 15 27 -3 49 -41 49 -27 0
-28 -1 -26 -55z m41 39 c23 -9 20 -34 -4 -34 -13 0 -20 7 -20 20 0 22 1 23 24
14z"/>
<path d="M1872 123 c1 -57 1 -58 7 -14 l6 44 23 -42 c13 -22 27 -41 33 -41 5
0 9 25 9 55 0 30 -4 55 -10 55 -5 0 -10 -17 -10 -37 l-1 -38 -22 37 c-12 21
-25 38 -29 38 -5 0 -7 -26 -6 -57z"/>
</g>
</svg>
